<svg height="512pt" viewBox="0 0 512 512" width="512pt" xmlns="http://www.w3.org/2000/svg" xmlns:xlink="http://www.w3.org/1999/xlink"><linearGradient id="a" gradientUnits="userSpaceOnUse" x1="0" x2="512" y1="256" y2="256"><stop offset="0" stop-color="#00f38d"/><stop offset="1" stop-color="#009eff"/></linearGradient><path d="m512 256c0 141.386719-114.613281 256-256 256s-256-114.613281-256-256 114.613281-256 256-256 256 114.613281 256 256zm0 0" fill="url(#a)"/><g fill="#fff"><path d="m353.320312 288.238281c-31.472656 0-57.078124 25.601563-57.078124 57.074219s25.605468 57.078125 57.078124 57.078125c31.472657 0 57.078126-25.605469 57.078126-57.078125s-25.605469-57.074219-57.078126-57.074219zm0 86.152344c-16.03125 0-29.078124-13.042969-29.078124-29.078125 0-16.03125 13.046874-29.074219 29.078124-29.074219s29.078126 13.042969 29.078126 29.074219c0 16.035156-13.046876 29.078125-29.078126 29.078125zm0 0"/><path d="m282.585938 307.984375c3.917968-7.398437 8.960937-14.109375 14.902343-19.90625l-116.203125-116.203125c4.121094-6.867188 9.15625-13.324219 15.058594-19.230469 26.042969-26.039062 62.476562-41.890625 97.464844-42.40625 26.160156-.386719 49.492187 8.335938 65.71875 24.5625 16.332031 16.332031 25.054687 39.980469 24.566406 66.59375-.40625 22.007813-6.992188 44.640625-18.410156 64.875 8.457031 1.316407 16.476562 3.964844 23.84375 7.71875 2.082031-3.9375 4.015625-7.945312 5.773437-12.011719 8.398438-19.445312 13.035157-40.234374 13.402344-60.128906.617187-33.359375-10.667969-63.351562-31.769531-84.453125-20.972656-20.972656-50.628906-32.238281-83.484375-31.769531-41.242188.605469-84.050781 19.15625-114.507813 49.613281-23.4375 23.4375-36.03125 53.972657-35.464844 85.988281.351563 19.792969 5.773438 39.589844 15.769532 57.832032l-53.230469 46.882812-.054687.046875c-7.554688 6.730469-12.050782 16.394531-12.34375 26.503907-.289063 10.113281 3.648437 20.015624 10.800781 27.167968l10.25 10.25c6.90625 6.90625 16.375 10.816406 26.121093 10.816406.347657 0 .699219-.007812 1.046876-.015624 10.113281-.289063 19.773437-4.789063 26.503906-12.339844l46.933594-53.289063c18.355468 10.058594 38.28125 15.460938 58.242187 15.75-.125-1.824219-.195313-3.664062-.195313-5.519531 0-6.574219.804688-12.960938 2.308594-19.082031-.144531.003906-.289062.007812-.433594.007812-.1875 0-.378906 0-.566406 0-18.925781-.117187-37.976562-6.09375-55.089844-17.28125l-8.921874-5.832031-60.671876 68.890625c-2.277343 2.539063-5.40625 3.992187-8.816406 4.089844-3.421875.105469-6.636718-1.179688-9.054687-3.597657l-10.25-10.253906c-2.417969-2.417968-3.699219-5.632812-3.601563-9.054687.097656-3.410157 1.550782-6.539063 4.09375-8.816407l68.886719-60.671874-5.832031-8.921876c-10.976563-16.792968-16.953125-35.464843-17.28125-54-.148438-8.304687.84375-16.492187 2.894531-24.40625zm0 0"/></g></svg>